<svg xmlns="http://www.w3.org/2000/svg" xmlns:xlink="http://www.w3.org/1999/xlink" viewBox="0 0 1024 768"><defs><style>.a,.e{fill:none;}.b{fill:#97d9e8;}.c{fill:#497d33;}.d{fill:#3b5931;}.e{stroke:#375e26;}.e,.f{stroke-miterlimit:10;stroke-width:3px;}.f{fill:#eedc72;stroke:#fbb03b;}.g{clip-path:url(#a);}</style><clipPath id="a"><rect class="a" x="0.5" y="582.5" width="1025" height="97"/></clipPath></defs><rect class="b" x="1" width="1023" height="770"/><path class="c" d="M901,430c-10.29009-2.69716-47.91435-24.6213-58-29-51.50281-22.36-79.63714-16.66621-130.63867-9.75635C606.52417,405.58289,510.26733,473.699,403.5,476.5c-132.02734,3.46362-255.63995-70.963-386.937-85.25635-4.63672-.50476-9.8764-.874-15.563-1.0708L1,769H896.51025L896.5,770H1024l.00006-378.82715C985.92773,389.85541,933.889,438.6206,901,430Z"/><path class="d" d="M900,434c-10.29009-2.69716-47.91435-24.6213-58-29-51.50281-22.36-79.63714-16.66621-130.63867-9.75635C605.52417,409.58289,509.26733,477.699,402.5,480.5c-132.02734,3.46362-255.63995-70.963-386.937-85.25635-4.63672-.50476-9.8764-.874-15.563-1.0708L0,773H895.51025L895.5,774H1023l.00006-378.82715C984.92773,393.85541,932.889,442.6206,900,434Z"/><path class="e" d="M1023.99892,621.28083A78.1601,78.1601,0,0,0,998,633.57278"/><path class="e" d="M1014.39207,680.46216a163.7314,163.7314,0,0,0-24.86444-7.20247c-15.63018-3.12764-43.58623-1.163-64.52763,14.31309"/><path class="e" d="M897.39207,734.46216a163.7314,163.7314,0,0,0-24.86444-7.20247c-15.63018-3.12764-43.58623-1.163-64.52763,14.31309"/><path class="e" d="M1022.39078,726.77839A72.88869,72.88869,0,0,0,1009,734.57278"/><path class="e" d="M770.39207,697.46216a163.7314,163.7314,0,0,0-24.86444-7.20247c-15.63018-3.12764-43.58623-1.163-64.52763,14.31309"/><path class="e" d="M542.39207,746.46216a163.7314,163.7314,0,0,0-24.86444-7.20247c-15.63018-3.12764-43.58623-1.163-64.52763,14.31309"/><path class="e" d="M391.39207,718.46216a163.7314,163.7314,0,0,0-24.86444-7.20247c-15.63018-3.12764-43.58623-1.163-64.52763,14.31309"/><path class="e" d="M146.39207,560.46216a163.7314,163.7314,0,0,0-24.86444-7.20247C105.89745,550.13205,77.9414,552.09674,57,567.57278"/><path class="e" d="M341.39207,650.46216a163.7314,163.7314,0,0,0-24.86444-7.20247c-15.63018-3.12764-43.58623-1.163-64.52763,14.31309"/><path class="e" d="M601.39207,680.46216a163.7314,163.7314,0,0,0-24.86444-7.20247c-15.63018-3.12764-43.58623-1.163-64.52763,14.31309"/><path class="e" d="M507.39207,626.46216a163.7314,163.7314,0,0,0-24.86444-7.20247c-15.63018-3.12764-43.58623-1.163-64.52763,14.31309"/><path class="e" d="M523.39207,518.46216a163.7314,163.7314,0,0,0-24.86444-7.20247C482.89745,508.13205,454.9414,510.09674,434,525.57278"/><path class="e" d="M706.39207,456.46216a163.7314,163.7314,0,0,0-24.86444-7.20247C665.89745,446.13205,637.9414,448.09674,617,463.57278"/><path class="e" d="M653.39207,526.46216a163.7314,163.7314,0,0,0-24.86444-7.20247c-15.63018-3.12764-43.58623-1.163-64.52763,14.31309"/><path class="e" d="M776.39207,560.46216a163.7314,163.7314,0,0,0-24.86444-7.20247c-15.63018-3.12764-43.58623-1.163-64.52763,14.31309"/><path class="e" d="M661.39207,606.46216a163.7314,163.7314,0,0,0-24.86444-7.20247c-15.63018-3.12764-43.58623-1.163-64.52763,14.31309"/><path class="e" d="M948.39207,590.46216a163.7314,163.7314,0,0,0-24.86444-7.20247c-15.63018-3.12764-43.58623-1.163-64.52763,14.31309"/><path class="e" d="M881.39207,526.46216a163.7314,163.7314,0,0,0-24.86444-7.20247c-15.63018-3.12764-43.58623-1.163-64.52763,14.31309"/><path class="e" d="M1014.39207,496.46216a163.7314,163.7314,0,0,0-24.86444-7.20247C973.89745,486.13205,945.9414,488.09674,925,503.57278"/><path class="e" d="M859.39207,456.46216a163.7314,163.7314,0,0,0-24.86444-7.20247C818.89745,446.13205,790.9414,448.09674,770,463.57278"/><path class="e" d="M280.39207,590.46216a163.7314,163.7314,0,0,0-24.86444-7.20247c-15.63018-3.12764-43.58623-1.163-64.52763,14.31309"/><path class="e" d="M302.39207,534.46216a163.7314,163.7314,0,0,0-24.86444-7.20247c-15.63018-3.12764-43.58623-1.163-64.52763,14.31309"/><path class="e" d="M109.39207,488.46216a163.7314,163.7314,0,0,0-24.86444-7.20247C68.89745,478.13205,40.9414,480.09674,20,495.57278"/><path class="e" d="M418.39207,578.46216a163.7314,163.7314,0,0,0-24.86444-7.20247c-15.63018-3.12764-43.58623-1.163-64.52763,14.31309"/><path class="e" d="M264.39207,742.46216a163.7314,163.7314,0,0,0-24.86444-7.20247c-15.63018-3.12764-43.58623-1.163-64.52763,14.31309"/><path class="e" d="M191.39207,687.46216a163.7314,163.7314,0,0,0-24.86444-7.20247c-15.63018-3.12764-43.58623-1.163-64.52763,14.31309"/><path class="e" d="M64.39207,625.46216a163.7314,163.7314,0,0,0-24.86444-7.20247C29.86981,616.32713,15.506,616.3388.99892,620.28083"/><path class="e" d="M836.39207,646.46216a163.7314,163.7314,0,0,0-24.86444-7.20247c-15.63018-3.12764-43.58623-1.163-64.52763,14.31309"/><path class="e" d="M75.39207,726.46216a163.7314,163.7314,0,0,0-24.86444-7.20247c-12.47265-2.49581-32.79417-1.74893-51.13685,6.5187"/><rect class="f" x="0.5" y="582.5" width="1025" height="97"/><g class="g"><rect class="f" x="6.5" y="586.5" width="43" height="43" rx="8.26471" transform="translate(-285.41043 86.25111) rotate(-28.35615)"/><rect class="f" x="6.5" y="636.32353" width="43" height="43" rx="8.26471" transform="translate(-309.07416 92.22932) rotate(-28.35615)"/><rect class="f" x="45.5" y="615.32353" width="43" height="43" rx="8.26471" transform="translate(-294.42067 108.23266) rotate(-28.35615)"/><rect class="f" x="47.5" y="567.32353" width="43" height="43" rx="8.26471" transform="translate(-271.38306 103.42316) rotate(-28.35615)"/><rect class="f" x="-32.5" y="608.32353" width="43" height="43" rx="8.26471" transform="translate(-300.45506 70.34659) rotate(-28.35615)"/><rect class="f" x="87.5" y="596.32353" width="43" height="43" rx="8.26471" transform="translate(-280.35713 125.90083) rotate(-28.35615)"/><rect class="f" x="915.34982" y="556.08511" width="43" height="43" rx="8.26471" transform="translate(-161.9141 514.26065) rotate(-28.35615)"/><rect class="f" x="719.34982" y="562.08511" width="43" height="43" rx="8.26471" transform="translate(-188.28139 421.89022) rotate(-28.35615)"/><rect class="f" x="803.34982" y="567.08511" width="43" height="43" rx="8.26471" transform="translate(-180.57718 462.38603) rotate(-28.35615)"/><rect class="f" x="88.34982" y="546.08511" width="43" height="43" rx="8.26471" transform="translate(-256.39438 120.27646) rotate(-28.35615)"/><rect class="f" x="92.5" y="641" width="43" height="43" rx="8.26471" transform="translate(-300.97631 133.63621) rotate(-28.35615)"/><rect class="f" x="133.5" y="621.82353" width="43" height="43" rx="8.26471" transform="translate(-286.94894 150.80825) rotate(-28.35615)"/><rect class="f" x="53.5" y="662.82353" width="43" height="43" rx="8.26471" transform="translate(-316.02094 117.73168) rotate(-28.35615)"/><rect class="f" x="209.5" y="579" width="43" height="43" rx="8.26471" transform="translate(-257.49081 181.76622) rotate(-28.35615)"/><rect class="f" x="250.5" y="559.82353" width="43" height="43" rx="8.26471" transform="translate(-243.46344 198.93826) rotate(-28.35615)"/><rect class="f" x="171.5" y="600.82353" width="43" height="43" rx="8.26471" transform="translate(-272.41544 166.33664) rotate(-28.35615)"/><rect class="f" x="171.5" y="651" width="43" height="43" rx="8.26471" transform="translate(-296.2468 172.3572) rotate(-28.35615)"/><rect class="f" x="212.5" y="631.82353" width="43" height="43" rx="8.26471" transform="translate(-282.21942 189.52924) rotate(-28.35615)"/><rect class="f" x="132.5" y="672.82353" width="43" height="43" rx="8.26471" transform="translate(-311.29142 156.45267) rotate(-28.35615)"/><rect class="f" x="288.5" y="589" width="43" height="43" rx="8.26471" transform="translate(-252.76129 220.48721) rotate(-28.35615)"/><rect class="f" x="329.5" y="569.82353" width="43" height="43" rx="8.26471" transform="translate(-238.73392 237.65925) rotate(-28.35615)"/><rect class="f" x="250.5" y="610.82353" width="43" height="43" rx="8.26471" transform="translate(-267.68593 205.05763) rotate(-28.35615)"/><rect class="f" x="261.5" y="652" width="43" height="43" rx="8.26471" transform="translate(-285.92286 215.22276) rotate(-28.35615)"/><rect class="f" x="302.5" y="632.82353" width="43" height="43" rx="8.26471" transform="translate(-271.89549 232.3948) rotate(-28.35615)"/><rect class="f" x="222.5" y="673.82353" width="43" height="43" rx="8.26471" transform="translate(-300.96748 199.31823) rotate(-28.35615)"/><rect class="f" x="378.5" y="590" width="43" height="43" rx="8.26471" transform="translate(-242.43736 263.35277) rotate(-28.35615)"/><rect class="f" x="419.5" y="570.82353" width="43" height="43" rx="8.26471" transform="translate(-228.40998 280.52481) rotate(-28.35615)"/><rect class="f" x="340.5" y="611.82353" width="43" height="43" rx="8.26471" transform="translate(-257.36199 247.92319) rotate(-28.35615)"/><rect class="f" x="360.5" y="648" width="43" height="43" rx="8.26471" transform="translate(-272.14428 261.76294) rotate(-28.35615)"/><rect class="f" x="401.5" y="628.82353" width="43" height="43" rx="8.26471" transform="translate(-258.11691 278.93498) rotate(-28.35615)"/><rect class="f" x="321.5" y="669.82353" width="43" height="43" rx="8.26471" transform="translate(-287.1889 245.85841) rotate(-28.35615)"/><rect class="f" x="477.5" y="586" width="43" height="43" rx="8.26471" transform="translate(-228.65878 309.89295) rotate(-28.35615)"/><rect class="f" x="518.5" y="566.82353" width="43" height="43" rx="8.26471" transform="translate(-214.6314 327.06499) rotate(-28.35615)"/><rect class="f" x="439.5" y="607.82353" width="43" height="43" rx="8.26471" transform="translate(-243.58341 294.46337) rotate(-28.35615)"/><rect class="f" x="450.5" y="651" width="43" height="43" rx="8.26471" transform="translate(-262.77024 304.86847) rotate(-28.35615)"/><rect class="f" x="491.5" y="631.82353" width="43" height="43" rx="8.26471" transform="translate(-248.74287 322.04052) rotate(-28.35615)"/><rect class="f" x="411.5" y="672.82353" width="43" height="43" rx="8.26471" transform="translate(-277.81487 288.96395) rotate(-28.35615)"/><rect class="f" x="567.5" y="589" width="43" height="43" rx="8.26471" transform="translate(-219.28474 352.99848) rotate(-28.35615)"/><rect class="f" x="608.5" y="569.82353" width="43" height="43" rx="8.26471" transform="translate(-205.25737 370.17053) rotate(-28.35615)"/><rect class="f" x="529.5" y="610.82353" width="43" height="43" rx="8.26471" transform="translate(-234.20937 337.56891) rotate(-28.35615)"/><rect class="f" x="520.5" y="667" width="43" height="43" rx="8.26471" transform="translate(-261.97032 340.03483) rotate(-28.35615)"/><rect class="f" x="561.5" y="647.82353" width="43" height="43" rx="8.26471" transform="translate(-247.94295 357.20688) rotate(-28.35615)"/><rect class="f" x="481.5" y="688.82353" width="43" height="43" rx="8.26471" transform="translate(-277.01494 324.13031) rotate(-28.35615)"/><rect class="f" x="637.5" y="605" width="43" height="43" rx="8.26471" transform="translate(-218.48482 388.16484) rotate(-28.35615)"/><rect class="f" x="678.5" y="585.82353" width="43" height="43" rx="8.26471" transform="translate(-204.45744 405.33689) rotate(-28.35615)"/><rect class="f" x="599.5" y="626.82353" width="43" height="43" rx="8.26471" transform="translate(-233.40945 372.73527) rotate(-28.35615)"/><rect class="f" x="606.5" y="671" width="43" height="43" rx="8.26471" transform="translate(-253.55119 381.36055) rotate(-28.35615)"/><rect class="f" x="647.5" y="651.82353" width="43" height="43" rx="8.26471" transform="translate(-239.52381 398.5326) rotate(-28.35615)"/><rect class="f" x="567.5" y="692.82353" width="43" height="43" rx="8.26471" transform="translate(-268.59581 365.45603) rotate(-28.35615)"/><rect class="f" x="723.5" y="609" width="43" height="43" rx="8.26471" transform="translate(-210.06568 429.49056) rotate(-28.35615)"/><rect class="f" x="764.5" y="589.82353" width="43" height="43" rx="8.26471" transform="translate(-196.03831 446.66261) rotate(-28.35615)"/><rect class="f" x="685.5" y="630.82353" width="43" height="43" rx="8.26471" transform="translate(-224.99032 414.06099) rotate(-28.35615)"/><rect class="f" x="719.5" y="662" width="43" height="43" rx="8.26471" transform="translate(-235.71802 433.9501) rotate(-28.35615)"/><rect class="f" x="760.5" y="642.82353" width="43" height="43" rx="8.26471" transform="translate(-221.69065 451.12215) rotate(-28.35615)"/><rect class="f" x="680.5" y="683.82353" width="43" height="43" rx="8.26471" transform="translate(-250.76265 418.04558) rotate(-28.35615)"/><rect class="f" x="836.5" y="600" width="43" height="43" rx="8.26471" transform="translate(-192.23252 482.08011) rotate(-28.35615)"/><rect class="f" x="877.5" y="580.82353" width="43" height="43" rx="8.26471" transform="translate(-178.20515 499.25216) rotate(-28.35615)"/><rect class="f" x="798.5" y="621.82353" width="43" height="43" rx="8.26471" transform="translate(-207.15715 466.65054) rotate(-28.35615)"/><rect class="f" x="822.5" y="656" width="43" height="43" rx="8.26471" transform="translate(-220.50959 482.15011) rotate(-28.35615)"/><rect class="f" x="863.5" y="636.82353" width="43" height="43" rx="8.26471" transform="translate(-206.48222 499.32215) rotate(-28.35615)"/><rect class="f" x="783.5" y="677.82353" width="43" height="43" rx="8.26471" transform="translate(-235.55421 466.24558) rotate(-28.35615)"/><rect class="f" x="939.5" y="594" width="43" height="43" rx="8.26471" transform="translate(-177.02409 530.28012) rotate(-28.35615)"/><rect class="f" x="980.5" y="574.82353" width="43" height="43" rx="8.26471" transform="translate(-162.99671 547.45216) rotate(-28.35615)"/><rect class="f" x="901.5" y="615.82353" width="43" height="43" rx="8.26471" transform="translate(-191.94872 514.85054) rotate(-28.35615)"/><rect class="f" x="943.5" y="642" width="43" height="43" rx="8.26471" transform="translate(-199.34177 537.93933) rotate(-28.35615)"/><rect class="f" x="984.5" y="622.82353" width="43" height="43" rx="8.26471" transform="translate(-185.3144 555.11137) rotate(-28.35615)"/><rect class="f" x="904.5" y="663.82353" width="43" height="43" rx="8.26471" transform="translate(-214.3864 522.0348) rotate(-28.35615)"/><rect class="f" x="1022.5" y="601.82353" width="43" height="43" rx="8.26471" transform="translate(-170.7809 570.63976) rotate(-28.35615)"/><rect class="f" x="164.5" y="554" width="43" height="43" rx="8.26471" transform="translate(-251.01648 157.39374) rotate(-28.35615)"/><rect class="f" x="125.5" y="574.82353" width="43" height="43" rx="8.26471" transform="translate(-265.58615 141.36923) rotate(-28.35615)"/><rect class="f" x="90.34982" y="692.08511" width="43" height="43" rx="8.26471" transform="translate(-325.49723 138.74456) rotate(-28.35615)"/><rect class="f" x="-29.65018" y="656.26158" width="43" height="43" rx="8.26471" transform="translate(-322.88133 77.45209) rotate(-28.35615)"/><rect class="f" x="-29.65018" y="556.26158" width="43" height="43" rx="8.26471" transform="translate(-275.38625 65.45332) rotate(-28.35615)"/><rect class="f" x="1019.34982" y="652.26158" width="43" height="43" rx="8.26471" transform="translate(-195.11448 575.19553) rotate(-28.35615)"/><rect class="f" x="979.34982" y="674.26158" width="43" height="43" rx="8.26471" transform="translate(-210.3629 558.83722) rotate(-28.35615)"/><rect class="f" x="956.34982" y="535.26158" width="43" height="43" rx="8.26471" transform="translate(-147.10446 531.23507) rotate(-28.35615)"/><rect class="f" x="760.34982" y="541.26158" width="43" height="43" rx="8.26471" transform="translate(-173.47174 438.86464) rotate(-28.35615)"/><rect class="f" x="843.34982" y="545.26158" width="43" height="43" rx="8.26471" transform="translate(-165.41257 478.76551) rotate(-28.35615)"/><rect class="f" x="557.34982" y="546.26158" width="43" height="43" rx="8.26471" transform="translate(-200.20399 343.04956) rotate(-28.35615)"/><rect class="f" x="647.34982" y="549.26158" width="43" height="43" rx="8.26471" transform="translate(-190.82995 386.1551) rotate(-28.35615)"/><rect class="f" x="456.34982" y="546.26158" width="43" height="43" rx="8.26471" transform="translate(-212.32274 295.07953) rotate(-28.35615)"/><rect class="f" x="368.34982" y="546.26158" width="43" height="43" rx="8.26471" transform="translate(-222.88166 253.28386) rotate(-28.35615)"/><rect class="f" x="16.34982" y="682.08511" width="43" height="43" rx="8.26471" transform="translate(-329.6268 102.39833) rotate(-28.35615)"/></g></svg>