<svg xmlns="http://www.w3.org/2000/svg" viewBox="0 0 1024 768"><defs><style>.a{fill:#97d9e8;}.b{fill:#497d33;}.c{fill:none;stroke:#375e26;stroke-miterlimit:10;stroke-width:3px;}</style></defs><rect class="a" x="1" width="1023" height="770"/><path class="b" d="M901,628c-10.29009-2.69716-47.91435-24.6213-58-29-51.50281-22.36-79.63714-16.66621-130.63867-9.75635C606.52417,603.58289,510.26733,671.699,403.5,674.5c-132.02734,3.46362-255.63995-70.963-386.937-85.25635-4.63672-.50476-9.8764-.874-15.563-1.0708L1,769H896.51025L896.5,770H1024l.00006-180.82715C985.92773,587.85541,933.889,636.6206,901,628Z"/><path class="c" d="M1023.99892,621.28083A78.1601,78.1601,0,0,0,998,633.57278"/><path class="c" d="M1014.39207,680.46216a163.7314,163.7314,0,0,0-24.86444-7.20247c-15.63018-3.12764-43.58623-1.163-64.52763,14.31309"/><path class="c" d="M897.39207,734.46216a163.7314,163.7314,0,0,0-24.86444-7.20247c-15.63018-3.12764-43.58623-1.163-64.52763,14.31309"/><path class="c" d="M1022.39078,726.77839A72.88869,72.88869,0,0,0,1009,734.57278"/><path class="c" d="M770.39207,697.46216a163.7314,163.7314,0,0,0-24.86444-7.20247c-15.63018-3.12764-43.58623-1.163-64.52763,14.31309"/><path class="c" d="M627.39207,689.46216a163.7314,163.7314,0,0,0-24.86444-7.20247c-15.63018-3.12764-43.58623-1.163-64.52763,14.31309"/><path class="c" d="M542.39207,746.46216a163.7314,163.7314,0,0,0-24.86444-7.20247c-15.63018-3.12764-43.58623-1.163-64.52763,14.31309"/><path class="c" d="M391.39207,718.46216a163.7314,163.7314,0,0,0-24.86444-7.20247c-15.63018-3.12764-43.58623-1.163-64.52763,14.31309"/><path class="c" d="M264.39207,742.46216a163.7314,163.7314,0,0,0-24.86444-7.20247c-15.63018-3.12764-43.58623-1.163-64.52763,14.31309"/><path class="c" d="M191.39207,687.46216a163.7314,163.7314,0,0,0-24.86444-7.20247c-15.63018-3.12764-43.58623-1.163-64.52763,14.31309"/><path class="c" d="M64.39207,625.46216a163.7314,163.7314,0,0,0-24.86444-7.20247C29.86981,616.32713,15.506,616.3388.99892,620.28083"/><path class="c" d="M849.39207,658.46216a163.7314,163.7314,0,0,0-24.86444-7.20247c-15.63018-3.12764-43.58623-1.163-64.52763,14.31309"/><path class="c" d="M75.39207,726.46216a163.7314,163.7314,0,0,0-24.86444-7.20247c-12.47265-2.49581-32.79417-1.74893-51.13685,6.5187"/></svg>